<svg xmlns="http://www.w3.org/2000/svg" xmlns:xlink="http://www.w3.org/1999/xlink" width="817.153" height="261.762" viewBox="0 0 817.153 261.762">
  <defs>
    <linearGradient id="linear-gradient" x1="0.724" y1="0.395" x2="0.083" y2="0.868" gradientUnits="objectBoundingBox">
      <stop offset="0" stop-color="#ef4938"/>
      <stop offset="1" stop-color="#ffd2ab"/>
    </linearGradient>
  </defs>
  <g id="logo-c" transform="translate(-705 -1793)">
    <path id="Union_1" data-name="Union 1" d="M318.15,134.372c69.394-13.3,189.426-15.153,189.426-15.153A693.875,693.875,0,0,1,570.357,88.55C602.65,75.019,636.746,65.1,636.746,65.1S502.615,28.023,402.58,29.376,236.606,70.509,236.606,70.509s62.42-55.024,150.819-67.833C430.653-3.587,525.227.55,601.748,21.438c80,21.839,146.489,63.5,146.489,63.5S690.327,89.722,642.52,100.1,551.6,123.552,551.6,123.552s84.521,6.946,150.458-6.494,115.1-45.823,115.1-45.823-33.556,55.925-106.8,75.409c-44.419,11.815-109.427,9.88-180.581,7.946-46.176-1.255-94.941-2.511-142.345-.008C266.977,160.937,230,172.439,230,172.439S248.756,147.677,318.15,134.372ZM136.662,81.335c54.292-7.226,125.6-4.813,192.42-2.4,56.627,2.045,110.026,4.09,147.1.268,80.826-8.332,108.97-17.713,108.97-17.713s-18.4,33.195-135.3,45.463c-58.072,6.094-114.8,4.726-168.226,3.358-54.128-1.385-104.87-2.771-150.191,3.6C41.371,126.578,0,166.917,0,166.917S36.356,94.685,136.662,81.335Z" transform="translate(705 1793)" fill="url(#linear-gradient)"/>
    <path id="Union_2" data-name="Union 2" d="M80.968,63.824c-.885-4.232,2.147-10.991,2.147-10.991L96.506,19.355l-7.242-3.109L93.549,0H121.2L104.339,51.823s.252,2.147,6.7,1.894,8.212-1.894,8.212-1.894L139.74,0h20.322L141.353,52.833s-2.9,7.043-6.19,10.991a14.268,14.268,0,0,1-6.948,4.8L86.652,69.762S81.851,68.056,80.968,63.824Zm308.1,4.429c-.049-.011-4.828-1.108-6.4-2.557a4.516,4.516,0,0,1-1.387-2.736,8.749,8.749,0,0,1,.154-3.076,15.635,15.635,0,0,1,1.233-3.549L402.537,8.872A13.773,13.773,0,0,1,403.915,6.4a11.8,11.8,0,0,1,4.37-3.929,19.416,19.416,0,0,1,7.987-1.433c1.31,0,2.2.084,2.214.085l33.466.449c.043.011,4.387,1.122,6.1,4.183a8.724,8.724,0,0,1,.648,5.186,16.243,16.243,0,0,1-.648,2.862l-16.264,45.16a60.34,60.34,0,0,1-4.927,6.733c-2.229,2.454-7.177,3.6-7.226,3.613ZM418.39,17.212a7.525,7.525,0,0,0-1.95,3.5l-10.914,28.31c-.018.02-1.689,1.958-.583,3.6.535.795,3.853,1.163,3.887,1.166h12.342c.007,0,.176.01.438.01.925,0,3.142-.114,3.74-1.176a13.959,13.959,0,0,0,1.165-2.915L435.946,22.9c.008-.032.808-3.3,0-4.92s-3.247-1.649-3.272-1.649l-10.821.147a5.667,5.667,0,0,0-.752-.046,4.45,4.45,0,0,0-2.709.78ZM226.07,68.252c-.049-.011-4.828-1.108-6.4-2.557a4.516,4.516,0,0,1-1.387-2.736,8.746,8.746,0,0,1,.154-3.076,15.634,15.634,0,0,1,1.233-3.549L239.537,8.872A13.768,13.768,0,0,1,240.916,6.4a11.8,11.8,0,0,1,4.37-3.929,19.416,19.416,0,0,1,7.987-1.433c1.31,0,2.2.084,2.214.085l33.466.449c.043.011,4.387,1.122,6.1,4.183a8.723,8.723,0,0,1,.648,5.186,16.243,16.243,0,0,1-.648,2.862l-16.265,45.16a60.339,60.339,0,0,1-4.927,6.733c-2.229,2.454-7.177,3.6-7.226,3.613Zm29.322-51.041a7.525,7.525,0,0,0-1.95,3.5l-10.914,28.31c-.018.02-1.689,1.958-.583,3.6.536.795,3.853,1.163,3.887,1.166h12.342c.006,0,.176.01.438.01.925,0,3.142-.114,3.74-1.176a13.951,13.951,0,0,0,1.165-2.915L272.946,22.9c.008-.032.808-3.3,0-4.92s-3.247-1.649-3.272-1.649l-10.821.147a5.667,5.667,0,0,0-.751-.046,4.45,4.45,0,0,0-2.71.78Zm91.361,52.041,11.372-33.116L337.432,59.292h-13.3l-3.284-23.156L308.633,69.252H288.164l22.171-52.5-8.212-2.135L308.633.99,332.625.706l7.6,35.429L370.671.706h20.3L366.008,69.252Zm-183.093,0L184.16,16.4l-20.5-.751,5.953-15.4H227L222.013,16.4h-18.09L183.089,69.252Zm-107.119,0V24.306L25.1,69.252H0l52.328-69H78v69ZM638.3,69l19.379-52.848H648.32L654.561.662H715l-5.091,15.49H678.867l-3.449,11.28h27.426l-6.076,14.781H669.177l-3.613,9.853h31.2L690.692,69Zm-65.954,0V.826H592.53V46.154L624.251.826h21.77L595.931,69ZM462.411,69l20.5-52.848-20.5-.751L468.363,0h57.389l-4.987,16.152h-18.09L481.84,69Zm56.5-1.332L537.8,17.085l-6.4-.933L537.793,0,564.4,1.319,540.257,67.668Z" transform="translate(756 1985)" fill="#fff"/>
  </g>
</svg>
