<svg xmlns="http://www.w3.org/2000/svg" xmlns:xlink="http://www.w3.org/1999/xlink" width="817.153" height="172.439" viewBox="0 0 817.153 172.439">
  <defs>
    <linearGradient id="linear-gradient" x1="0.139" y1="0.753" x2="0.956" y2="0.569" gradientUnits="objectBoundingBox">
      <stop offset="0" stop-color="#ffca9c"/>
      <stop offset="1" stop-color="#ef4938"/>
    </linearGradient>
  </defs>
  <g id="logo" transform="translate(-705 -1793)">
    <path id="Union_1" data-name="Union 1" d="M318.15,134.372c69.394-13.3,189.426-15.153,189.426-15.153A693.875,693.875,0,0,1,570.357,88.55C602.65,75.019,636.746,65.1,636.746,65.1S502.615,28.023,402.58,29.376,236.606,70.509,236.606,70.509s62.42-55.024,150.819-67.833C430.653-3.587,525.227.55,601.748,21.438c80,21.839,146.489,63.5,146.489,63.5S690.327,89.722,642.52,100.1,551.6,123.552,551.6,123.552s84.521,6.946,150.458-6.494,115.1-45.823,115.1-45.823-33.556,55.925-106.8,75.409c-44.419,11.815-109.427,9.88-180.581,7.946-46.176-1.255-94.941-2.511-142.345-.008C266.977,160.937,230,172.439,230,172.439S248.756,147.677,318.15,134.372ZM136.662,81.335c54.292-7.226,125.6-4.813,192.42-2.4,56.627,2.045,110.026,4.09,147.1.268,80.826-8.332,108.97-17.713,108.97-17.713s-18.4,33.195-135.3,45.463c-58.072,6.094-114.8,4.726-168.226,3.358-54.128-1.385-104.87-2.771-150.191,3.6C41.371,126.578,0,166.917,0,166.917S36.356,94.685,136.662,81.335Z" transform="translate(705 1793)" fill="url(#linear-gradient)"/>
  </g>
</svg>
